<?xml version="1.0" standalone="no"?>
<!DOCTYPE svg PUBLIC "-//W3C//DTD SVG 1.1//EN" "http://www.w3.org/Graphics/SVG/1.1/DTD/svg11.dtd">
<!--Generator: Xara Designer (www.xara.com), SVG filter version: 6.2.0.0-->
<svg stroke-width="0.501" stroke-linejoin="bevel" fill-rule="evenodd" xmlns:xlink="http://www.w3.org/1999/xlink" xmlns="http://www.w3.org/2000/svg" version="1.1" overflow="visible" width="281.25pt" height="281.25pt" viewBox="0 0 281.25 281.25">
 <defs>
	</defs>
 <g id="Document" fill="none" stroke="black" font-family="Times New Roman" font-size="16" transform="scale(1 -1)">
  <g id="Spread" transform="translate(0 -281.25)">
   <g id="Layer 1">
    <path d="M 81.716,107.796 L 81.716,181.699 C 81.716,189.742 88.245,196.271 96.289,196.271 L 189.008,196.271 C 197.052,196.271 203.581,189.742 203.581,181.699 L 203.581,107.796 C 203.581,99.753 197.052,93.224 189.008,93.224 L 96.289,93.224 C 88.245,93.224 81.716,99.753 81.716,107.796 Z M 170.281,109.953 C 173.655,111.205 176.746,113.097 179.556,115.628 C 185.181,120.696 188.315,126.966 188.96,134.435 C 189.146,136.875 189.238,139.303 189.238,141.722 C 189.238,144.138 189.146,146.566 188.96,149.008 C 188.315,156.479 185.181,162.748 179.556,167.814 C 176.746,170.395 173.655,172.33 170.281,173.619 C 166.907,174.91 163.24,175.553 159.279,175.553 C 155.316,175.551 151.654,174.911 148.289,173.632 C 144.928,172.351 141.862,170.442 139.095,167.907 C 136.371,165.376 134.235,162.539 132.687,159.393 C 131.138,156.25 130.201,152.787 129.875,149.008 C 129.644,146.66 129.529,144.276 129.529,141.859 C 129.529,139.441 129.644,136.968 129.875,134.435 C 130.201,130.7 131.138,127.264 132.687,124.129 C 134.235,120.995 136.371,118.161 139.095,115.628 C 141.862,113.097 144.928,111.205 148.289,109.953 C 151.654,108.698 155.316,108.073 159.279,108.076 C 163.24,108.073 166.907,108.698 170.281,109.953 Z M 137.925,110.111 C 134.727,111.361 131.801,113.202 129.151,115.626 C 126.426,118.16 124.291,120.995 122.742,124.128 C 122.654,124.304 122.57,124.48 122.486,124.659 L 111.465,124.659 L 111.465,166.608 C 111.452,168.101 111.101,169.451 110.418,170.656 C 109.734,171.861 108.804,172.819 107.631,173.534 C 106.454,174.247 105.122,174.613 103.634,174.629 C 102.232,174.613 100.941,174.247 99.761,173.534 C 98.581,172.819 97.631,171.861 96.911,170.656 C 96.192,169.451 95.82,168.101 95.802,166.608 L 95.802,117.379 C 95.81,115.8 96.144,114.402 96.801,113.187 C 97.462,111.972 98.402,111.018 99.624,110.326 C 100.846,109.633 102.305,109.281 104.004,109.267 L 134.238,109.267 C 135.59,109.279 136.819,109.56 137.925,110.111 Z M 152.399,124.689 C 150.408,125.859 148.81,127.476 147.608,129.546 C 146.405,131.617 145.688,134.015 145.456,136.74 C 145.364,138.447 145.319,140.155 145.319,141.871 C 145.319,143.586 145.364,145.32 145.456,147.071 C 145.688,149.795 146.405,152.185 147.608,154.24 C 148.81,156.296 150.408,157.9 152.399,159.053 C 154.389,160.207 156.682,160.794 159.279,160.814 C 161.908,160.791 164.246,160.198 166.29,159.033 C 168.332,157.867 169.966,156.257 171.191,154.2 C 172.414,152.143 173.112,149.766 173.286,147.071 C 173.423,145.32 173.492,143.586 173.492,141.871 C 173.492,140.155 173.423,138.447 173.286,136.74 C 173.112,134.015 172.414,131.617 171.191,129.546 C 169.966,127.476 168.332,125.859 166.29,124.689 C 164.246,123.522 161.908,122.926 159.279,122.905 C 156.682,122.926 154.389,123.522 152.399,124.689 Z" fill="#ffffff" stroke-linejoin="miter" stroke-width="2.191" stroke="none" marker-start="none" marker-end="none" stroke-miterlimit="79.8403193612775"/>
   </g>
   <g id="Layer_1"/>
  </g>
 </g>
</svg>
